<?xml version="1.0" encoding="UTF-8"?>
<svg id="Layer_2" data-name="Layer 2" xmlns="http://www.w3.org/2000/svg" viewBox="0 0 315.56 326.13">
  <defs>
    <style>
      .cls-1 {
        fill: #fff;
      }

      .cls-2 {
        fill: #f9f3ef;
      }
    </style>
  </defs>
  <g id="Layer_1-2" data-name="Layer 1">
    <g>
      <g>
        <path class="cls-2" d="M44.59,284.58c1.02.21,1.86.71,2.53,1.49.67.79,1,1.68,1,2.67v37.03h-9.11v-18.8l-5.2,11.78c-.37.75-.93,1.33-1.68,1.76-.72.43-1.53.65-2.41.65s-1.64-.21-2.38-.65c-.75-.43-1.31-1.01-1.71-1.73l-5.4-11.81v18.8h-9.11v-37.27c0-1,.33-1.88,1-2.64.64-.78,1.49-1.29,2.52-1.53,1.02-.21,2.3-.12,3.85.29.96.43,1.67,1.08,2.15,1.97l8.99,18.82,8.96-18.59c.45-.88,1.16-1.53,2.11-1.97,1.55-.43,2.84-.53,3.88-.29Z"/>
        <path class="cls-2" d="M64.29,319.64l-2.35,6.11h-9.43l14.54-38.79c.35-.76.88-1.38,1.59-1.85.7-.45,1.49-.68,2.35-.68s1.63.23,2.38.68c.74.47,1.28,1.09,1.61,1.85l14.74,38.82h-9.45l-2.38-6.14h-13.6ZM74.43,310.74l-3.41-8.72-3.35,8.72h6.76Z"/>
        <path class="cls-2" d="M103.44,309.92v16h-9.31v-41.29h9.31v16.41h11.45v-16.41h9.31v41.29h-9.31v-16h-11.45Z"/>
        <path class="cls-2" d="M149.87,284.37c9.85,0,14.77,6.95,14.77,20.85s-4.92,20.85-14.77,20.85h-6.49c-9.85,0-14.77-6.95-14.77-20.85s4.92-20.85,14.77-20.85h6.49ZM147.14,293.24h-1.03c-5.35.04-8.01,3.25-8.01,9.63v4.99c0,6.28,2.76,9.43,8.28,9.43h.5c5.52,0,8.28-3.14,8.28-9.43v-4.99c0-6.38-2.67-9.59-8.02-9.63Z"/>
        <path class="cls-2" d="M188.04,317v-11.13h9.31v19.91h-13.8c-10.65,0-15.97-6.85-15.97-20.56s5.32-20.56,15.97-20.56h13.8v8.87h-9.66c-7.09,0-10.63,3.21-10.63,9.63v4.4c0,6.28,3.4,9.43,10.22,9.43h.76Z"/>
        <path class="cls-2" d="M213.54,319.64l-2.35,6.11h-9.43l14.54-38.79c.35-.76.88-1.38,1.59-1.85.7-.45,1.49-.68,2.35-.68s1.63.23,2.38.68c.74.47,1.28,1.09,1.61,1.85l14.74,38.82h-9.45l-2.38-6.14h-13.6ZM223.67,310.74l-3.41-8.72-3.35,8.72h6.76Z"/>
        <path class="cls-2" d="M275.41,284.61v36.91c0,1-.29,1.9-.88,2.7-.57.8-1.33,1.36-2.29,1.67-.94.31-1.89.31-2.85,0-.94-.29-1.7-.84-2.29-1.64l-14.51-20.32v21.88h-9.22v-37.12c0-.98.29-1.88.88-2.7.59-.8,1.35-1.36,2.29-1.67.94-.31,1.89-.31,2.85,0,.94.29,1.71.84,2.32,1.64l14.48,20.29v-21.64h9.22Z"/>
        <path class="cls-2" d="M290.13,319.64l-2.35,6.11h-9.43l14.54-38.79c.35-.76.88-1.38,1.59-1.85.7-.45,1.49-.68,2.35-.68s1.63.23,2.38.68c.74.47,1.28,1.09,1.61,1.85l14.74,38.82h-9.45l-2.38-6.14h-13.6ZM300.26,310.74l-3.41-8.72-3.35,8.72h6.76Z"/>
      </g>
      <g>
        <path class="cls-1" d="M156.68,252.89c-2.4.41-4.64-1.11-5.72-3.17-2.56-4.56-3.19-9.89-3.83-15-.66-8.22-1.04-16.46-1.12-24.7.02-4.61-.97-9.13-1.79-13.64-4.73-25.85-10.62-51.55-19.07-76.46-11.65-28.43-30.35-53.29-51.02-75.76-2.28,1.74-4.77,3.26-6.66,5.45-18.13,23.43-30.36,50.97-38.16,79.43-4.64,20.28-10.06,40.42-13.59,60.94-2.58,15.09-4.72,30.25-6.31,45.47-.27,3.71.17,7.43-.2,11.13-.36,2.11-1.18,4.13-1.38,6.28-2.62-.19-5.2.66-7.83.15,6.08-42.15,11.28-84.5,20.93-126.02C31.31,82.22,46.99,37.9,73.49,0c19.33,24.16,36.22,50.37,49.12,78.53,18.9,40.73,29.72,85.03,32.94,129.76,1.14,14.83,1.4,29.72,1.14,44.6Z"/>
        <path class="cls-1" d="M130.49,235.46c.6,5.81,1.43,11.64,1.48,17.48-3.6-4.04-4.37-9.68-5.9-14.68-4.63-18.36-7.29-37.16-11.82-55.54-9.27-26-22.85-50.41-39.65-72.28-15.65,23.67-28.03,49.64-35.85,76.96-6,21.26-8.94,43.44-7.97,65.53-1.72-.09-3.44-.16-5.18-.24,4.01-35.49,9.38-71,19.47-105.32,5.5-17.97,13.7-36.52,29.48-47.75,12.43,14.72,23.41,30.74,31.73,48.15,13.39,27.43,20.73,57.47,24.22,87.69Z"/>
        <path class="cls-1" d="M140.68,253.07c-1.98-1.85-2.57-4.59-3.43-7.05-1.97-6.68-3.32-13.53-4.63-20.36-3.63-19.36-6.49-38.87-9.9-58.27-1.41-8.47-4.36-16.58-7.12-24.68-3.71-10.31-8.15-20.37-13.94-29.69l-2.27-2.53c2.37,5.79,6.47,10.78,8.46,16.76-4.48-7.16-8.47-14.65-13.08-21.75-.71-.87-1.03-1.94-1.28-3.03-5.08-6.8-11.74-12.31-18.9-16.82-8.02,7.97-14.92,17.03-21.03,26.53-9.58,14.82-15.58,31.56-20.78,48.32-4.74,18.65-7.76,37.71-9.74,56.84-.49,9.57.35,19.26-1.49,28.73-.66,2.73-1.72,5.96-4.77,6.82,1.96-22.55,3.23-45.18,6.45-67.59,4.1-28.46,11.03-57.18,26.04-82.03,6.93-11.67,15.94-22,26.1-30.95,25.07,24.72,42.15,56.72,51.65,90.44,8.48,29.36,12.03,59.89,13.65,90.32Z"/>
        <path class="cls-1" d="M313.46,252.89c-2.4.41-4.64-1.11-5.72-3.17-2.56-4.56-3.19-9.89-3.83-15-.66-8.22-1.04-16.46-1.12-24.7.02-4.61-.97-9.13-1.79-13.64-4.73-25.85-10.62-51.55-19.07-76.46-11.65-28.43-30.35-53.29-51.02-75.76-2.28,1.74-37.02,56.42-44.82,84.87-4.64,20.28-10.06,40.42-13.59,60.94-2.58,15.09-4.72,30.25-6.31,45.47-.27,3.71.17,7.43-.2,11.13-.36,2.11-1.18,4.13-1.38,6.28-2.62-.19-5.2.66-7.83.15,6.08-42.15,11.28-84.5,20.93-126.02,10.38-44.76,26.06-89.08,52.56-126.98,19.33,24.16,36.22,50.37,49.12,78.53,18.9,40.73,29.72,85.03,32.94,129.76,1.14,14.83,1.4,29.72,1.14,44.6Z"/>
        <path class="cls-1" d="M287.27,235.46c.6,5.81,1.43,11.64,1.48,17.48-3.6-4.04-4.37-9.68-5.9-14.68-4.63-18.36-7.29-37.16-11.82-55.54-9.27-26-22.85-50.41-39.65-72.28-15.65,23.67-28.03,49.64-35.85,76.96-6,21.26-8.94,43.44-7.97,65.53-1.72-.09-3.44-.16-5.18-.24,4.01-35.49,9.38-71,19.47-105.32,5.5-17.97,13.7-36.52,29.48-47.75,12.43,14.72,23.41,30.74,31.73,48.15,13.39,27.43,20.73,57.47,24.22,87.69Z"/>
        <path class="cls-1" d="M297.46,253.07c-1.98-1.85-2.57-4.59-3.43-7.05-1.97-6.68-3.32-13.53-4.63-20.36-3.63-19.36-6.49-38.87-9.9-58.27-1.41-8.47-4.36-16.58-7.12-24.68-3.71-10.31-8.15-20.37-13.94-29.69l-2.27-2.53c2.37,5.79,6.47,10.78,8.46,16.76-4.48-7.16-8.47-14.65-13.08-21.75-.71-.87-1.03-1.94-1.28-3.03-5.08-6.8-11.74-12.31-18.9-16.82-8.02,7.97-14.92,17.03-21.03,26.53-9.58,14.82-15.58,31.56-20.78,48.32-4.74,18.65-7.76,37.71-9.74,56.84-.49,9.57.35,19.26-1.49,28.73-.66,2.73-1.72,5.96-4.77,6.82,1.96-22.55,3.23-45.18,6.45-67.59,4.1-28.46,11.03-57.18,26.04-82.03,6.93-11.67,15.94-22,26.1-30.95,25.07,24.72,42.15,56.72,51.65,90.44,8.48,29.36,12.03,59.89,13.65,90.32Z"/>
        <path class="cls-1" d="M116.79,230.58c.44,4.27,1.05,8.55,1.09,12.85-2.65-2.97-3.21-7.11-4.34-10.79-3.4-13.5-5.36-27.31-8.69-40.82-6.81-19.11-16.8-37.06-29.15-53.13-11.51,17.4-20.6,36.49-26.35,56.57-4.41,15.63-6.57,31.93-5.86,48.17-1.27-.07-2.53-.12-3.8-.17,2.95-26.09,6.9-52.19,14.31-77.42,4.05-13.21,10.07-26.84,21.67-35.1,9.14,10.82,17.21,22.6,23.32,35.4,9.85,20.16,15.24,42.24,17.8,64.46Z"/>
        <path class="cls-1" d="M273.57,230.58c.44,4.27,1.05,8.55,1.09,12.85-2.65-2.97-3.21-7.11-4.34-10.79-3.4-13.5-5.36-27.31-8.69-40.82-6.81-19.11-16.8-37.06-29.15-53.13-11.51,17.4-20.6,36.49-26.35,56.57-4.41,15.63-6.57,31.93-5.86,48.17-1.27-.07-2.53-.12-3.8-.17,2.95-26.09,6.9-52.19,14.31-77.42,4.05-13.21,10.07-26.84,21.67-35.1,9.14,10.82,17.21,22.6,23.32,35.4,9.85,20.16,15.24,42.24,17.8,64.46Z"/>
      </g>
    </g>
  </g>
</svg>